<?xml version="1.0" encoding="UTF-8"?>
<svg xmlns="http://www.w3.org/2000/svg" xmlns:xlink="http://www.w3.org/1999/xlink" width="26px" height="28px" viewBox="0 0 26 27" version="1.1">
<g id="surface1">
<path style=" stroke:none;fill-rule:nonzero;fill:rgb(0%,0%,0%);fill-opacity:1;" d="M 11.597656 0.113281 C 11.480469 0.15625 11.300781 0.246094 11.207031 0.3125 C 11.113281 0.375 9.445312 1.707031 7.503906 3.277344 C 5.566406 4.84375 3.621094 6.414062 3.1875 6.757812 C 2.125 7.601562 1.375 8.226562 1.269531 8.355469 C 1.09375 8.578125 1.183594 8.800781 1.699219 9.378906 C 2.148438 9.890625 2.265625 9.984375 2.445312 9.984375 C 2.644531 9.984375 2.820312 9.863281 3.839844 9.023438 C 4.699219 8.3125 5.359375 7.777344 6.675781 6.734375 C 7.070312 6.417969 8.460938 5.292969 9.765625 4.238281 L 12.140625 2.3125 L 16.75 6.035156 C 19.28125 8.085938 21.429688 9.8125 21.511719 9.871094 C 21.6875 10.003906 21.878906 10.015625 22.058594 9.914062 C 22.171875 9.847656 22.777344 9.171875 22.976562 8.890625 C 23.09375 8.71875 23.109375 8.492188 23.015625 8.351562 C 22.980469 8.300781 22.824219 8.160156 22.671875 8.035156 C 22.511719 7.914062 21.902344 7.425781 21.3125 6.949219 C 20.726562 6.472656 20.179688 6.039062 20.105469 5.984375 L 19.972656 5.882812 L 19.953125 3.070312 L 19.929688 0.261719 L 19.820312 0.167969 L 19.710938 0.078125 L 18.234375 0.078125 C 16.804688 0.078125 16.753906 0.0820312 16.652344 0.152344 C 16.59375 0.199219 16.53125 0.300781 16.507812 0.375 C 16.484375 0.460938 16.46875 1.023438 16.46875 1.753906 C 16.46875 2.4375 16.453125 2.996094 16.4375 2.996094 C 16.417969 2.996094 16.195312 2.824219 15.945312 2.617188 C 13.394531 0.523438 13.007812 0.222656 12.683594 0.117188 C 12.351562 0.015625 11.898438 0.0117188 11.597656 0.113281 Z M 11.597656 0.113281 "/>
<path style=" stroke:none;fill-rule:nonzero;fill:rgb(0%,0%,0%);fill-opacity:1;" d="M 11.402344 4.023438 C 10.367188 4.863281 7.796875 6.925781 7.105469 7.472656 C 5.886719 8.433594 4.375 9.648438 4.347656 9.691406 C 4.332031 9.714844 4.316406 11.210938 4.316406 13.015625 C 4.316406 16.121094 4.320312 16.308594 4.390625 16.457031 C 4.480469 16.644531 4.738281 16.867188 4.945312 16.925781 C 5.050781 16.960938 5.851562 16.972656 7.753906 16.972656 L 10.410156 16.972656 L 10.410156 11.902344 L 13.855469 11.902344 L 13.855469 16.972656 L 16.519531 16.972656 C 18.335938 16.972656 19.230469 16.957031 19.335938 16.929688 C 19.550781 16.871094 19.886719 16.542969 19.949219 16.335938 C 19.976562 16.230469 19.992188 15.203125 19.992188 13.003906 C 19.992188 9.5625 20 9.703125 19.78125 9.539062 C 19.402344 9.25 18.558594 8.582031 17.75 7.933594 C 15.050781 5.746094 12.21875 3.511719 12.140625 3.5 C 12.078125 3.496094 11.867188 3.648438 11.402344 4.023438 Z M 11.402344 4.023438 "/>
<path style=" stroke:none;fill-rule:nonzero;fill:rgb(0%,0%,0%);fill-opacity:1;" d="M 9.097656 18.339844 C 9.050781 18.445312 8.910156 18.75 8.785156 19.019531 C 8.652344 19.292969 8.550781 19.519531 8.550781 19.527344 C 8.550781 19.535156 8.738281 19.542969 8.960938 19.542969 L 9.375 19.542969 L 9.902344 18.976562 C 10.1875 18.664062 10.476562 18.351562 10.546875 18.285156 L 10.664062 18.160156 L 9.179688 18.160156 Z M 9.097656 18.339844 "/>
<path style=" stroke:none;fill-rule:nonzero;fill:rgb(0%,0%,0%);fill-opacity:1;" d="M 13.210938 19.910156 C 12.144531 20.105469 11.292969 20.824219 10.925781 21.851562 C 10.753906 22.328125 10.683594 22.785156 10.683594 23.421875 C 10.679688 24.285156 10.792969 24.78125 11.117188 25.398438 C 11.261719 25.675781 11.367188 25.8125 11.65625 26.089844 C 12.210938 26.632812 12.8125 26.890625 13.621094 26.941406 C 14.554688 27 15.355469 26.730469 15.898438 26.179688 C 16.253906 25.8125 16.480469 25.429688 16.644531 24.894531 L 16.695312 24.738281 L 16.054688 24.539062 C 15.707031 24.429688 15.398438 24.34375 15.375 24.34375 C 15.347656 24.34375 15.308594 24.421875 15.28125 24.523438 C 15.152344 25.019531 14.808594 25.464844 14.417969 25.640625 C 14.21875 25.734375 14.144531 25.746094 13.777344 25.746094 C 13.40625 25.746094 13.335938 25.734375 13.128906 25.640625 C 12.839844 25.511719 12.511719 25.191406 12.378906 24.910156 C 12.175781 24.496094 12.136719 24.242188 12.132812 23.382812 C 12.132812 22.539062 12.164062 22.328125 12.371094 21.894531 C 12.496094 21.628906 12.84375 21.292969 13.128906 21.164062 C 13.339844 21.070312 13.402344 21.058594 13.816406 21.058594 C 14.355469 21.058594 14.523438 21.117188 14.847656 21.414062 C 15.035156 21.582031 15.28125 21.972656 15.28125 22.105469 C 15.28125 22.132812 15.3125 22.15625 15.351562 22.15625 C 15.4375 22.152344 16.617188 21.867188 16.644531 21.839844 C 16.675781 21.808594 16.515625 21.386719 16.363281 21.121094 C 16.03125 20.539062 15.507812 20.148438 14.785156 19.953125 C 14.414062 19.855469 13.628906 19.832031 13.210938 19.910156 Z M 13.210938 19.910156 "/>
<path style=" stroke:none;fill-rule:nonzero;fill:rgb(0%,0%,0%);fill-opacity:1;" d="M 21.890625 19.910156 C 21.058594 20.0625 20.46875 20.410156 19.996094 21.039062 C 19.585938 21.570312 19.390625 22.136719 19.3125 22.984375 C 19.238281 23.867188 19.367188 24.640625 19.691406 25.285156 C 20.101562 26.089844 20.769531 26.613281 21.691406 26.847656 C 22.175781 26.96875 23.148438 26.964844 23.613281 26.847656 C 24.527344 26.601562 25.195312 26.074219 25.59375 25.285156 C 25.808594 24.847656 25.917969 24.449219 25.976562 23.855469 C 26.058594 23.011719 25.925781 22.175781 25.59375 21.519531 C 25.199219 20.742188 24.496094 20.183594 23.613281 19.960938 C 23.199219 19.859375 22.316406 19.828125 21.890625 19.910156 Z M 23.441406 21.183594 C 23.746094 21.320312 24.011719 21.542969 24.191406 21.8125 C 24.6875 22.566406 24.683594 24.203125 24.183594 24.964844 C 24.007812 25.226562 23.703125 25.484375 23.410156 25.617188 C 23.195312 25.71875 23.085938 25.742188 22.777344 25.757812 C 21.953125 25.796875 21.34375 25.453125 20.996094 24.746094 C 20.796875 24.351562 20.730469 23.992188 20.730469 23.382812 C 20.730469 22.789062 20.796875 22.421875 20.980469 22.046875 C 21.203125 21.582031 21.535156 21.285156 22.007812 21.125 C 22.230469 21.050781 22.332031 21.039062 22.722656 21.046875 C 23.136719 21.058594 23.203125 21.070312 23.441406 21.183594 Z M 23.441406 21.183594 "/>
<path style=" stroke:none;fill-rule:nonzero;fill:rgb(0%,0%,0%);fill-opacity:1;" d="M 0.0390625 23.402344 L 0.0390625 26.839844 L 1.425781 26.839844 L 1.425781 19.964844 L 0.0390625 19.964844 Z M 0.0390625 23.402344 "/>
<path style=" stroke:none;fill-rule:nonzero;fill:rgb(0%,0%,0%);fill-opacity:1;" d="M 2.257812 23.402344 L 2.257812 26.839844 L 3.5625 26.839844 L 3.570312 24.609375 L 3.582031 22.378906 L 4.96875 24.605469 L 6.355469 26.835938 L 7.058594 26.839844 L 7.757812 26.839844 L 7.757812 19.964844 L 6.453125 19.964844 L 6.445312 22.238281 L 6.433594 24.511719 L 3.621094 19.964844 L 2.257812 19.964844 Z M 2.257812 23.402344 "/>
<path style=" stroke:none;fill-rule:nonzero;fill:rgb(0%,0%,0%);fill-opacity:1;" d="M 8.707031 23.402344 L 8.707031 26.839844 L 10.09375 26.839844 L 10.09375 19.964844 L 8.707031 19.964844 Z M 8.707031 23.402344 "/>
<path style=" stroke:none;fill-rule:nonzero;fill:rgb(0%,0%,0%);fill-opacity:1;" d="M 17.339844 23.402344 L 17.339844 26.839844 L 18.722656 26.839844 L 18.722656 19.964844 L 17.339844 19.964844 Z M 17.339844 23.402344 "/>
</g>
</svg>
